<?xml version="1.0" encoding="utf-8"?>
<!-- Generator: Adobe Illustrator 24.1.0, SVG Export Plug-In . SVG Version: 6.00 Build 0)  -->
<svg version="1.1" id="Layer_1" xmlns="http://www.w3.org/2000/svg" xmlns:xlink="http://www.w3.org/1999/xlink" x="0px" y="0px"
	 viewBox="0 0 75 75" style="enable-background:new 0 0 75 75;" xml:space="preserve">
<style type="text/css">
	.st0{fill:#38AADF;}
</style>
<g>
	<path id="XMLID_65_" class="st0" d="M37.5,4C56,4,71,19,71,37.5S56,71,37.5,71S4,56,4,37.5S19,4,37.5,4 M37.5,0
		C16.8,0,0,16.8,0,37.5S16.8,75,37.5,75S75,58.2,75,37.5S58.2,0,37.5,0L37.5,0z"/>
	<path id="Twitter_2_" class="st0" d="M55.3,24.6c-1.5,0.9-3.1,1.5-4.8,1.9c-1.4-1.5-3.3-2.4-5.5-2.4c-4.2,0-7.5,3.5-7.5,7.7
		c0,0.6,0.1,1.2,0.2,1.8c-6.3-0.3-11.8-3.4-15.5-8.1c-0.6,1.1-1,2.5-1,3.9c0,2.7,1.3,5,3.3,6.4c-1.2,0-2.4-0.4-3.4-1v0.1
		c0,3.7,2.6,6.9,6,7.6c-0.6,0.2-1.3,0.3-2,0.3c-0.5,0-1,0-1.4-0.1c1,3.1,3.7,5.3,7,5.4c-2.6,2.1-5.8,3.3-9.3,3.3
		c-0.6,0-1.2,0-1.8-0.1c3.3,2.2,7.3,3.5,11.5,3.5c13.8,0,21.4-11.8,21.4-21.9c0-0.3,0-0.7,0-1c1.5-1.1,2.7-2.4,3.8-4
		c-1.3,0.6-2.8,1-4.3,1.2C53.6,27.9,54.8,26.4,55.3,24.6z"/>
</g>
</svg>
