<?xml version="1.0" encoding="utf-8"?>
<!-- Generator: Adobe Illustrator 24.1.0, SVG Export Plug-In . SVG Version: 6.00 Build 0)  -->
<svg version="1.1" id="Layer_1" xmlns="http://www.w3.org/2000/svg" xmlns:xlink="http://www.w3.org/1999/xlink" x="0px" y="0px"
	 viewBox="0 0 75 75" style="enable-background:new 0 0 75 75;" xml:space="preserve">
<style type="text/css">
	.st0{fill:#566370;}
</style>
<g>
	<path id="XMLID_202_" class="st0" d="M37.5,4C56,4,71,19,71,37.5S56,71,37.5,71C19,71,4,56,4,37.5S19,4,37.5,4 M37.5,0
		C16.8,0,0,16.8,0,37.5S16.8,75,37.5,75C58.2,75,75,58.2,75,37.5S58.2,0,37.5,0L37.5,0z"/>
	<g id="XMLID_30_">
		<path id="XMLID_523_" class="st0" d="M39.9,43.7c-0.3,0-0.6,0.1-0.9,0.5v6.3c0.3,0.3,0.6,0.5,0.9,0.5c0.5,0,0.8-0.5,0.8-1.4v-4.4
			C40.7,44.1,40.4,43.7,39.9,43.7L39.9,43.7z M39.9,43.7"/>
		<path id="XMLID_520_" class="st0" d="M46.7,43.7c-0.6,0-0.9,0.5-0.9,1.4v1h1.9v-1C47.6,44.1,47.3,43.7,46.7,43.7L46.7,43.7z
			 M46.7,43.7"/>
		<path id="XMLID_513_" class="st0" d="M50.6,36.6c-1.2-1.2-2.5-1.2-3.1-1.3C43.2,35,36.7,35,36.7,35h0c0,0-6.5,0-10.8,0.3
			c-0.6,0.1-1.9,0.1-3.1,1.3c-0.9,0.9-1.2,3-1.2,3s-0.3,2.5-0.3,4.9v2.3c0,2.5,0.3,5,0.3,5s0.3,2.1,1.2,3c1.2,1.2,2.7,1.2,3.4,1.3
			c2.5,0.2,10.5,0.3,10.5,0.3s6.5,0,10.8-0.3c0.6-0.1,1.9-0.1,3.1-1.3c0.9-0.9,1.2-3,1.2-3s0.3-2.5,0.3-5v-2.3
			c0-2.5-0.3-4.9-0.3-4.9S51.5,37.5,50.6,36.6L50.6,36.6z M28.1,52.4H26V40.5h-2.2v-1.9h6.5v1.9h-2.2V52.4z M35.5,52.4h-1.9v-1.1
			c-0.7,0.8-1.4,1.3-2.1,1.3c-0.6,0-1-0.2-1.2-0.8c-0.1-0.3-0.2-0.8-0.2-1.5v-8.1H32v7.6c0,0.4,0,0.7,0,0.7c0,0.3,0.2,0.4,0.4,0.4
			c0.4,0,0.8-0.3,1.2-0.9v-7.9h1.9V52.4z M42.5,49.3c0,0.9-0.1,1.6-0.2,2.1c-0.2,0.8-0.7,1.2-1.5,1.2c-0.7,0-1.3-0.4-1.9-1.1v1h-1.9
			V38.6h1.9v4.5c0.6-0.7,1.2-1.1,1.9-1.1c0.7,0,1.2,0.4,1.5,1.2c0.1,0.4,0.2,1.1,0.2,2.1V49.3z M49.5,47.6h-3.7v1.8
			c0,1,0.3,1.4,1,1.4c0.5,0,0.7-0.3,0.8-0.7c0-0.1,0-0.5,0-1.3h1.9v0.3c0,0.6,0,1,0,1.2c-0.1,0.4-0.2,0.8-0.4,1.1
			c-0.5,0.7-1.3,1.1-2.3,1.1c-1,0-1.7-0.4-2.3-1.1c-0.4-0.5-0.6-1.3-0.6-2.4v-3.6c0-1.1,0.2-1.9,0.6-2.4c0.5-0.7,1.3-1.1,2.2-1.1
			c0.9,0,1.7,0.4,2.2,1.1c0.4,0.5,0.6,1.3,0.6,2.4V47.6z M49.5,47.6"/>
		<path id="XMLID_510_" class="st0" d="M31.8,34v-5.6l2.5-8.3h-2.1l-1.4,5.5L29.3,20h-2.2c0.4,1.3,0.9,2.6,1.3,3.9
			c0.7,1.9,1.1,3.4,1.3,4.4V34H31.8z M31.8,34"/>
		<path id="XMLID_34_" class="st0" d="M36.7,34.1c0.9,0,1.7-0.4,2.2-1.1c0.4-0.5,0.6-1.3,0.6-2.4V27c0-1.1-0.2-1.9-0.6-2.4
			c-0.5-0.7-1.3-1.1-2.2-1.1c-0.9,0-1.7,0.4-2.2,1.1c-0.4,0.5-0.6,1.3-0.6,2.4v3.6c0,1.1,0.2,1.9,0.6,2.4
			C35,33.8,35.7,34.1,36.7,34.1L36.7,34.1z M35.8,26.6c0-1,0.3-1.4,0.9-1.4c0.6,0,0.9,0.5,0.9,1.4V31c0,1-0.3,1.4-0.9,1.4
			c-0.6,0-0.9-0.5-0.9-1.4V26.6z M35.8,26.6"/>
		<path id="XMLID_31_" class="st0" d="M46.3,34V23.6h-1.9v7.9c-0.4,0.6-0.8,0.9-1.2,0.9c-0.3,0-0.4-0.2-0.4-0.4c0-0.1,0-0.3,0-0.7
			v-7.7h-1.9v8.2c0,0.7,0.1,1.2,0.2,1.5c0.2,0.5,0.6,0.8,1.2,0.8c0.7,0,1.4-0.4,2.2-1.3V34H46.3z M46.3,34"/>
	</g>
</g>
</svg>
