<?xml version="1.0" encoding="utf-8"?>
<!-- Generator: Adobe Illustrator 24.1.0, SVG Export Plug-In . SVG Version: 6.00 Build 0)  -->
<svg version="1.1" id="Layer_1" xmlns="http://www.w3.org/2000/svg" xmlns:xlink="http://www.w3.org/1999/xlink" x="0px" y="0px"
	 viewBox="0 0 75 75" style="enable-background:new 0 0 75 75;" xml:space="preserve">
<style type="text/css">
	.st0{fill:#38AADF;}
</style>
<g id="Internet_1_">
	<path id="XMLID_7_" class="st0" d="M37.5,40.2l18.7-15.1c-0.4-0.3-0.9-0.5-1.4-0.5H20.2c-0.5,0-1,0.2-1.4,0.5L37.5,40.2z"/>
	<g id="XMLID_3_">
		<path id="XMLID_6_" class="st0" d="M57.1,48.4c0-0.2,0.1-0.4,0.1-0.6V27.5l-11.2,9L57.1,48.4z"/>
		<path id="XMLID_5_" class="st0" d="M44.1,38.1l-6.6,5.3l-6.6-5.3L19.6,50.2c0.2,0.1,0.4,0.1,0.6,0.1h34.7c0.2,0,0.4,0,0.6-0.1
			L44.1,38.1z"/>
		<path id="XMLID_4_" class="st0" d="M29,36.6l-11.2-9v20.2c0,0.2,0,0.4,0.1,0.6L29,36.6z"/>
	</g>
</g>
<path id="XMLID_1_" class="st0" d="M37.5,4C56,4,71,19,71,37.5S56,71,37.5,71S4,56,4,37.5S19,4,37.5,4 M37.5,0C16.8,0,0,16.8,0,37.5
	S16.8,75,37.5,75S75,58.2,75,37.5S58.2,0,37.5,0L37.5,0z"/>
</svg>
