<?xml version="1.0" encoding="utf-8"?>
<!-- Generator: Adobe Illustrator 24.1.0, SVG Export Plug-In . SVG Version: 6.00 Build 0)  -->
<svg version="1.1" id="Layer_1" xmlns="http://www.w3.org/2000/svg" xmlns:xlink="http://www.w3.org/1999/xlink" x="0px" y="0px"
	 viewBox="0 0 75 75" style="enable-background:new 0 0 75 75;" xml:space="preserve">
<style type="text/css">
	.st0{fill:#38AADF;}
</style>
<g>
	<path id="XMLID_201_" class="st0" d="M37.5,4C56,4,71,19,71,37.5S56,71,37.5,71C19,71,4,56,4,37.5S19,4,37.5,4 M37.5,0
		C16.8,0,0,16.8,0,37.5S16.8,75,37.5,75C58.2,75,75,58.2,75,37.5S58.2,0,37.5,0L37.5,0z"/>
	<path id="XMLID_110_" class="st0" d="M49.7,23.7c-5.1-0.2-8.6,2.7-10.4,8.5c0.9-0.4,1.8-0.6,2.7-0.6c1.9,0,2.7,1,2.5,3.1
		c-0.1,1.3-0.9,3.1-2.5,5.5c-1.5,2.4-2.7,3.6-3.5,3.6c-1,0-1.9-1.8-2.7-5.5c-0.3-1.1-0.8-3.9-1.5-8.3c-0.7-4.1-2.4-6.1-5.3-5.8
		c-1.2,0.1-3,1.2-5.4,3.3c-1.8,1.6-3.6,3.2-5.4,4.7l1.7,2.2c1.7-1.1,2.6-1.7,2.9-1.7c1.3,0,2.4,2,3.5,5.9c1,3.6,2,7.2,3,10.8
		c1.5,3.9,3.3,5.9,5.4,5.9c3.5,0,7.7-3.2,12.7-9.6c4.8-6.1,7.3-11,7.5-14.5C55.3,26.2,53.5,23.8,49.7,23.7z"/>
</g>
</svg>
