<?xml version="1.0" encoding="utf-8"?>
<!-- Generator: Adobe Illustrator 24.1.0, SVG Export Plug-In . SVG Version: 6.00 Build 0)  -->
<svg version="1.1" id="Layer_1" xmlns="http://www.w3.org/2000/svg" xmlns:xlink="http://www.w3.org/1999/xlink" x="0px" y="0px"
	 viewBox="0 0 75 75" style="enable-background:new 0 0 75 75;" xml:space="preserve">
<style type="text/css">
	.st0{fill:#38AADF;}
</style>
<path id="XMLID_253_" class="st0" d="M37.5,4C56,4,71,19,71,37.5S56,71,37.5,71S4,56,4,37.5S19,4,37.5,4 M37.5,0
	C16.8,0,0,16.8,0,37.5S16.8,75,37.5,75S75,58.2,75,37.5S58.2,0,37.5,0L37.5,0z"/>
<g id="XMLID_20_">
	<rect id="XMLID_102_" x="21.5" y="29.2" class="st0" width="7.4" height="23.5"/>
	<path id="XMLID_101_" class="st0" d="M49.2,29c-4.2,0-6.9,2.3-7.4,3.9v-3.7h-8.3c0.1,2,0,23.5,0,23.5h8.3V40c0-0.7,0-1.4,0.2-1.9
		c0.6-1.4,1.8-2.9,4-2.9c2.9,0,4.2,2.2,4.2,5.4v12.2h8.4V39.6C58.6,32.4,54.4,29,49.2,29z"/>
	<path id="XMLID_100_" class="st0" d="M25.1,18.1c-2.7,0-4.5,1.8-4.5,4.1c0,2.3,1.7,4.1,4.4,4.1H25c2.8,0,4.5-1.8,4.5-4.1
		C29.5,19.9,27.8,18.1,25.1,18.1z"/>
</g>
</svg>
