<?xml version="1.0" encoding="utf-8"?>
<!-- Generator: Adobe Illustrator 24.1.0, SVG Export Plug-In . SVG Version: 6.00 Build 0)  -->
<svg version="1.1" id="Layer_1" xmlns="http://www.w3.org/2000/svg" xmlns:xlink="http://www.w3.org/1999/xlink" x="0px" y="0px"
	 viewBox="0 0 75 75" style="enable-background:new 0 0 75 75;" xml:space="preserve">
<style type="text/css">
	.st0{fill:#38AADF;}
</style>
<g>
	<path id="XMLID_1_" class="st0" d="M37.5,4C56,4,71,19,71,37.5S56,71,37.5,71S4,56,4,37.5S19,4,37.5,4 M37.5,0
		C16.8,0,0,16.8,0,37.5S16.8,75,37.5,75S75,58.2,75,37.5S58.2,0,37.5,0L37.5,0z"/>
	<g id="XMLID_310_">
		<polygon id="XMLID_311_" class="st0" points="44.2,38.5 28.7,38.5 28.7,31.3 45.4,31.3 		"/>
		<path id="Facebook_3_" class="st0" d="M32.3,26.6c0,0.9,0,28.5,0,28.5h7.1c0,0,0-26.8,0-27.4c0-0.8,0.4-1.2,1.2-1.2
			c1.6,0,3.2,0,4.8,0c0-0.9,0-4.4,0-7.1c-2.1,0-4.4,0-5.5,0C32.2,19.4,32.3,25.7,32.3,26.6z"/>
	</g>
</g>
</svg>
