<?xml version="1.0" encoding="utf-8"?>
<!-- Generator: Adobe Illustrator 24.1.0, SVG Export Plug-In . SVG Version: 6.00 Build 0)  -->
<svg version="1.1" id="Isolation_Mode" xmlns="http://www.w3.org/2000/svg" xmlns:xlink="http://www.w3.org/1999/xlink" x="0px"
	 y="0px" viewBox="0 0 41 41" style="enable-background:new 0 0 41 41;" xml:space="preserve">
<style type="text/css">
	.st0{fill:#38AADF;}
</style>
<g>
	<g>
		<path class="st0" d="M31.9,41c-3,0-5.9-1.5-7.6-4.1c-1.5-2.3-1.9-5.2-1-7.9c0.2-0.5,0-1.1-0.4-1.5l-9.2-9.2
			c-0.4-0.4-1-0.6-1.5-0.4c-2.7,0.9-5.6,0.5-7.9-1C0.3,14.2-1.1,9.3,0.9,5.2L1,5.1l0.4-0.3L1.7,5l4.6,4.6c0.3,0.3,0.9,0.6,1.4,0.6
			c0.6,0,1.2-0.3,1.8-0.8c0.5-0.5,0.7-1,0.7-1.6c0-0.6-0.2-1.1-0.6-1.5l-5-5l0.5-0.5c3.5-1.7,7.7-0.9,10.4,1.8
			c2.5,2.5,3.3,6,2.2,9.4c-0.2,0.5,0,1,0.4,1.4l9.4,9.4c0.4,0.4,1,0.5,1.4,0.4c3.3-1.1,6.9-0.3,9.4,2.2c2.7,2.7,3.5,6.9,1.8,10.4
			L40,35.9l-0.4,0.4L39.3,36l-4.6-4.6c-0.4-0.4-0.9-0.6-1.5-0.6c-0.6,0-1.1,0.3-1.6,0.7c-0.5,0.5-0.8,1.1-0.8,1.8
			c0,0.5,0.2,1,0.6,1.4l4.9,4.9l-0.5,0.5C34.5,40.7,33.2,41,31.9,41z M12.4,16.8c0.6,0,1.3,0.3,1.8,0.8l9.2,9.2
			c0.7,0.7,0.9,1.7,0.7,2.5c-0.8,2.4-0.4,5,0.9,7c2.2,3.2,6.2,4.5,9.7,3.2l-4.1-4.1c-0.5-0.5-0.8-1.3-0.9-2.1c0-0.6,0.2-1.6,1.1-2.5
			c0.6-0.6,1.4-1,2.3-1c0.8,0,1.6,0.3,2.2,0.9l4.1,4.1c1.1-3,0.4-6.4-1.8-8.7c-2.2-2.2-5.4-2.9-8.3-1.9c-0.8,0.3-1.8,0-2.5-0.6
			l-9.4-9.4c-0.7-0.7-0.9-1.6-0.6-2.5c1-3,0.3-6.2-1.9-8.3c-2.3-2.3-5.7-3-8.7-1.8l4.1,4.1c0.6,0.6,0.9,1.4,0.9,2.2
			c0,0.8-0.4,1.6-1,2.3c-0.9,0.9-1.9,1.1-2.5,1.1c-0.8,0-1.5-0.3-2.1-0.9L1.5,6.3C0.2,9.8,1.5,13.8,4.7,16c2,1.4,4.6,1.7,7,0.9
			C11.9,16.8,12.2,16.8,12.4,16.8z"/>
	</g>
	<g>
		<g>
			<path class="st0" d="M6.1,40.1c-1.3,0-2.6-0.5-3.6-1.5c-1-1-1.5-2.2-1.5-3.6s0.5-2.6,1.5-3.6l9.5-9.5l7.2,7.2l-9.5,9.5
				C8.7,39.6,7.4,40.1,6.1,40.1z M11.9,23.3l-8.8,8.8c-0.8,0.8-1.2,1.8-1.2,2.9s0.4,2.1,1.2,2.9c1.6,1.6,4.2,1.6,5.8,0l8.8-8.8
				L11.9,23.3z"/>
		</g>
		<g>
			
				<rect x="11.4" y="24.5" transform="matrix(0.7071 -0.7071 0.7071 0.7071 -17.0652 16.9544)" class="st0" width="1" height="9.2"/>
		</g>
		<g>
			
				<rect x="20.5" y="13.2" transform="matrix(0.7071 -0.7071 0.7071 0.7071 -1.6768 23.3283)" class="st0" width="13.6" height="1"/>
		</g>
		<g>
			<path class="st0" d="M35.7,9.4h-4v-4l4.7-2.8l2.2,2.2L35.7,9.4z M32.6,8.4h2.5l2.1-3.5l-1.1-1.1l-3.5,2.1V8.4z"/>
		</g>
	</g>
	<g>
		<rect x="14.5" y="23.7" transform="matrix(0.7071 -0.7071 0.7071 0.7071 -12.1602 18.9859)" class="st0" width="4.7" height="1"/>
	</g>
</g>
</svg>
